<?xml version="1.0" standalone="no"?>
<!DOCTYPE svg PUBLIC "-//W3C//DTD SVG 20010904//EN"
 "http://www.w3.org/TR/2001/REC-SVG-20010904/DTD/svg10.dtd">
<svg version="1.0" xmlns="http://www.w3.org/2000/svg"
 width="900.000000pt" height="900.000000pt" viewBox="0 0 900.000000 900.000000"
 preserveAspectRatio="xMidYMid meet">
<metadata>
Created by potrace 1.10, written by Peter Selinger 2001-2011
</metadata>
<g transform="translate(0.000000,900.000000) scale(0.100000,-0.100000)"
fill="#000000" stroke="none">
<path d="M1580 8931 c-239 -37 -444 -242 -491 -491 -20 -109 -21 -7790 -1
-7890 23 -109 58 -190 119 -272 71 -94 165 -164 288 -213 50 -20 74 -20 2945
-23 1726 -1 2919 1 2955 7 212 32 395 202 469 436 15 45 16 336 16 3032 l0
2981 -25 49 c-18 38 -212 236 -816 839 -1595 1591 -1490 1489 -1567 1526 l-47
23 -1900 1 c-1045 1 -1920 -2 -1945 -5z m3590 -1396 l5 -880 33 -60 c67 -123
174 -199 301 -216 36 -5 470 -8 964 -9 l897 0 0 -2869 0 -2869 -42 -36 -42
-36 -2799 0 -2800 0 -34 26 c-18 14 -40 38 -48 54 -13 26 -15 475 -15 3853 0
4160 -4 3868 56 3908 28 18 68 19 1774 16 l1745 -2 5 -880z"/>
<path d="M4440 6057 c-42 -9 -84 -48 -647 -611 -331 -330 -620 -624 -642 -652
-39 -50 -41 -56 -41 -124 0 -100 46 -176 135 -223 61 -32 176 -30 230 5 22 15
195 182 385 372 190 190 350 346 357 346 10 0 13 -263 15 -1247 3 -958 6
-1256 16 -1284 17 -49 73 -112 124 -139 34 -18 59 -23 121 -23 71 0 82 3 126
33 26 18 63 55 82 83 l34 50 3 1263 c2 976 5 1264 14 1264 7 0 170 -158 363
-350 192 -193 366 -360 385 -372 48 -30 181 -32 225 -3 125 79 175 202 126
308 -14 30 -198 220 -643 664 -343 342 -634 626 -648 631 -47 17 -75 19 -120
9z"/>
</g>
</svg>
