<?xml version="1.0" standalone="no"?>
<!DOCTYPE svg PUBLIC "-//W3C//DTD SVG 20010904//EN"
 "http://www.w3.org/TR/2001/REC-SVG-20010904/DTD/svg10.dtd">
<svg version="1.0" xmlns="http://www.w3.org/2000/svg"
 width="300.000000pt" height="300.000000pt" viewBox="0 0 300.000000 300.000000"
 preserveAspectRatio="xMidYMid meet">
<metadata>
Created by potrace 1.10, written by Peter Selinger 2001-2011
</metadata>
<g transform="translate(0.000000,300.000000) scale(0.050000,-0.050000)"
fill="#000000" stroke="none">
<path d="M1260 5611 c-536 -149 -699 -672 -397 -1277 246 -491 531 -843 642
-793 104 48 531 710 628 975 239 650 -254 1268 -873 1095z m360 -456 c342
-232 59 -739 -314 -562 -224 107 -226 463 -3 573 98 48 237 44 317 -11z"/>
<path d="M2237 4239 c-28 -16 -177 -240 -177 -267 0 -7 23 -7 50 0 l50 12 -5
-1276 -5 -1275 -816 -339 c-448 -187 -819 -335 -825 -330 -12 13 545 2799 568
2838 15 24 1 58 -52 135 -133 190 -112 257 -468 -1529 -339 -1702 -336 -1684
-278 -1737 51 -46 -35 -76 1029 368 504 211 928 379 941 374 12 -5 243 -137
512 -293 296 -172 509 -284 541 -284 45 1 857 459 857 484 0 6 -29 47 -65 92
l-66 83 -299 -177 c-164 -98 -306 -178 -314 -178 -8 0 -13 608 -10 1351 l5
1352 390 168 c215 92 401 168 415 168 26 1 879 -324 945 -359 28 -15 41 -78
69 -334 18 -174 51 -390 72 -480 26 -111 39 -239 40 -390 0 -124 30 -503 65
-841 36 -339 60 -613 54 -610 -7 3 -157 79 -334 170 l-323 165 -61 -84 c-34
-46 -62 -90 -62 -98 0 -24 874 -458 924 -458 122 0 123 -62 -25 1410 -67 660
-131 1311 -143 1446 -13 135 -33 258 -45 274 -31 40 -1027 450 -1094 450 -31
0 -268 -90 -526 -200 -258 -110 -474 -200 -480 -200 -6 0 -206 82 -446 183
-540 226 -570 237 -608 216z m937 -606 c3 -4 4 -611 1 -1349 l-5 -1343 -390
228 -390 228 -5 1289 -5 1290 393 -168 c217 -93 397 -171 401 -175z"/>
<path d="M4166 3204 c-371 -133 -575 -519 -478 -904 109 -433 636 -1213 771
-1141 170 92 629 861 693 1163 123 581 -434 1079 -986 882z m394 -429 c304
-155 199 -601 -142 -602 -339 -2 -443 448 -139 602 49 25 113 45 141 45 28 0
91 -20 140 -45z"/>
</g>
</svg>
