<svg id="svg" version="1.1" xmlns="http://www.w3.org/2000/svg" xmlns:xlink="http://www.w3.org/1999/xlink" width="400" height="400" viewBox="0, 0, 400,400"><g id="svgg"><path id="path0" d="M132.275 12.451 C 44.385 23.538,-8.160 114.556,26.293 196.032 C 58.992 273.360,156.192 301.327,223.766 252.852 L 228.220 249.657 241.471 262.791 C 248.759 270.015,254.833 275.989,254.969 276.065 C 255.106 276.142,254.702 277.690,254.072 279.504 C 251.891 285.794,252.311 292.095,255.240 297.015 C 257.108 300.153,340.952 383.672,343.915 385.347 C 369.074 399.567,397.210 373.262,384.835 347.090 C 383.399 344.053,301.573 261.202,296.517 257.666 C 291.643 254.258,284.559 253.111,278.849 254.807 L 276.024 255.646 262.880 242.509 C 255.650 235.284,249.735 229.189,249.735 228.964 C 249.735 228.739,251.136 226.793,252.848 224.638 C 283.547 186.007,289.565 131.293,268.042 86.508 C 243.930 36.334,187.398 5.497,132.275 12.451 M157.448 39.718 C 245.432 48.305,284.285 153.472,222.791 216.590 C 161.408 279.593,55.301 243.913,44.472 156.628 C 36.347 91.143,92.197 33.349,157.448 39.718 " stroke="none" fill="#000000" fill-rule="evenodd"></path></g></svg>